REM MD5 4f7dafbf4d7123f14deef5b84eabdb62
FILE "PS One Special Demo 01 (Europe) (En,Fr,De,Es,It).bin" BINARY
  TRACK 01 MODE2/2352
    INDEX 01 00:00:00
  TRACK 02 AUDIO
    INDEX 00 34:27:23
    INDEX 01 34:29:23
  TRACK 03 AUDIO
    INDEX 00 35:48:23
    INDEX 01 35:50:23
  TRACK 04 AUDIO
    INDEX 00 37:44:19
    INDEX 01 37:46:19
  TRACK 05 AUDIO
    INDEX 00 39:28:44
    INDEX 01 39:30:44
REM LEADOUT 42:32:02
